<?xml version="1.0" standalone="no"?>
<!DOCTYPE svg PUBLIC "-//W3C//DTD SVG 20010904//EN"
 "http://www.w3.org/TR/2001/REC-SVG-20010904/DTD/svg10.dtd">
<svg version="1.0" xmlns="http://www.w3.org/2000/svg"
 width="460.000000pt" height="460.000000pt" viewBox="0 0 460.000000 460.000000"
 preserveAspectRatio="xMidYMid meet">
<metadata>
Created by potrace 1.14, written by Peter Selinger 2001-2017
</metadata>
<g transform="translate(0.000000,460.000000) scale(0.100000,-0.100000)"
fill="#000000" stroke="none">
<path d="M2283 4280 c-33 -32 -53 -59 -53 -73 1 -53 77 -102 147 -94 59 6 83
35 83 98 0 40 -5 53 -34 83 -48 52 -78 49 -143 -14z"/>
<path d="M1808 4011 c-13 -10 -34 -21 -48 -24 -25 -6 -66 -40 -92 -74 -7 -10
-51 -33 -98 -52 -115 -46 -236 -111 -349 -188 l-94 -64 -31 29 c-40 38 -77 62
-94 62 -7 0 -10 -5 -6 -12 4 -7 3 -8 -5 -4 -6 4 -9 11 -6 16 3 5 -5 10 -17 12
-41 6 -112 -11 -180 -44 -61 -29 -67 -34 -61 -56 5 -23 4 -24 -20 -18 -25 6
-53 -14 -29 -22 6 -2 8 -10 5 -18 -3 -7 -9 -11 -14 -8 -5 3 -7 10 -4 15 4 5 3
9 -2 9 -4 0 -27 -28 -50 -62 -44 -68 -65 -116 -42 -103 9 6 11 3 6 -9 -6 -16
6 -53 22 -66 3 -3 17 -21 31 -41 13 -20 29 -35 36 -32 9 3 11 -3 8 -19 -4 -17
0 -13 15 12 10 19 15 37 10 38 -13 5 -11 32 2 32 5 0 7 -4 4 -10 -3 -5 -1 -10
4 -10 6 0 11 4 11 8 0 5 16 27 35 49 35 41 47 65 22 44 -10 -8 -14 -7 -14 5 0
10 7 14 19 11 23 -6 81 40 74 59 -6 17 19 25 33 11 8 -8 11 -7 11 3 0 7 3 11
6 7 4 -3 20 1 37 10 17 8 44 17 61 20 28 5 25 -1 -47 -71 -42 -41 -77 -78 -77
-80 0 -3 -10 -16 -23 -29 -44 -46 -77 -87 -77 -96 0 -5 -3 -11 -7 -13 -8 -3
-85 -116 -123 -180 -19 -34 -26 -38 -63 -39 -23 -1 -46 -1 -51 0 -5 1 -6 -5
-3 -14 4 -9 1 -15 -9 -15 -10 0 -14 6 -11 14 4 9 0 13 -11 11 -9 -2 -28 -4
-42 -4 -19 -1 -22 -3 -10 -11 8 -5 11 -13 6 -17 -4 -4 -13 -1 -19 8 -11 15
-18 15 -67 2 -30 -8 -59 -19 -65 -25 -7 -8 -5 -9 8 -5 21 8 23 -9 2 -17 -9 -3
-18 1 -21 8 -4 11 -16 9 -55 -12 -52 -28 -60 -38 -32 -44 15 -3 15 -4 0 -17
-15 -12 -17 -11 -17 3 0 22 -13 20 -37 -6 -48 -53 -81 -138 -53 -138 6 0 8 -5
5 -10 -4 -6 -11 -8 -16 -5 -13 9 -11 -2 6 -35 9 -17 13 -30 10 -30 -7 0 70
-100 105 -138 20 -21 20 -23 3 -49 -10 -16 -20 -30 -23 -33 -9 -7 -75 -119
-97 -165 -25 -49 -59 -148 -67 -192 -3 -18 -9 -48 -13 -65 -10 -43 -10 -281
-1 -333 28 -152 85 -286 182 -425 48 -69 170 -188 239 -233 132 -86 278 -146
401 -162 23 -3 48 -7 57 -8 9 -2 55 -38 102 -81 48 -44 110 -96 139 -118 29
-22 60 -45 68 -51 8 -7 51 -34 95 -60 44 -27 87 -53 95 -58 18 -10 46 -24 195
-90 69 -31 297 -94 378 -104 18 -3 57 -8 87 -12 68 -10 387 -10 455 0 77 12
99 16 238 46 102 23 317 108 412 163 17 9 49 27 73 39 23 13 42 26 42 31 0 4
5 8 10 8 45 0 341 263 445 395 22 28 43 51 48 53 4 2 7 10 7 17 0 14 12 19 65
29 17 3 42 8 58 11 15 3 39 7 55 10 15 3 38 8 52 10 40 8 71 14 130 25 30 6
66 12 80 15 93 19 190 36 220 41 68 9 119 34 140 68 25 41 25 56 -1 186 -11
58 -22 119 -24 135 -3 17 -7 41 -9 55 -11 52 -16 76 -21 109 -3 19 -7 37 -9
40 -2 3 -7 24 -10 46 -7 48 -34 193 -46 255 -6 25 -12 59 -15 75 -3 17 -7 41
-10 55 -22 98 -34 204 -26 214 11 13 9 31 -14 146 -3 14 -7 39 -9 55 -6 49
-16 66 -36 60 -10 -3 -31 -7 -46 -10 -29 -3 -67 -10 -114 -20 -14 -3 -38 -8
-55 -10 -16 -3 -37 -8 -46 -10 -12 -4 -24 20 -53 107 -21 62 -55 148 -76 191
l-38 78 67 31 c36 17 104 48 151 69 51 23 84 44 82 51 -5 19 -53 128 -73 163
-12 22 -22 29 -39 27 -20 -3 -209 -88 -282 -126 -27 -14 -28 -14 -65 37 -122
168 -321 349 -509 463 -43 27 -80 52 -82 57 -2 4 -9 7 -15 7 -6 0 -42 15 -81
34 -104 49 -134 62 -203 85 -86 29 -248 69 -308 76 -27 4 -59 9 -70 12 -40 12
-367 10 -453 -3 -117 -18 -130 -18 -137 5 -5 18 -27 31 -62 37 -7 1 -23 -6
-35 -15z m-923 -330 c-3 -6 -11 -8 -17 -5 -6 4 -5 9 3 15 16 10 23 4 14 -10z
m62 13 c-3 -3 -12 -4 -19 -1 -8 3 -5 6 6 6 11 1 17 -2 13 -5z m-125 -36 c-7
-7 -12 -8 -12 -2 0 14 12 26 19 19 2 -3 -1 -11 -7 -17z m-47 -27 c-3 -6 -11
-8 -17 -5 -6 4 -5 9 3 15 16 10 23 4 14 -10z m270 -81 c3 -5 -1 -10 -10 -10
-9 0 -13 5 -10 10 3 6 8 10 10 10 2 0 7 -4 10 -10z m-60 -10 c-3 -5 -11 -10
-16 -10 -6 0 -7 5 -4 10 3 6 11 10 16 10 6 0 7 -4 4 -10z m-50 -20 c-3 -5 -10
-10 -16 -10 -5 0 -9 5 -9 10 0 6 7 10 16 10 8 0 12 -4 9 -10z m-299 -27 c-10
-10 -19 5 -10 18 6 11 8 11 12 0 2 -7 1 -15 -2 -18z m-32 -38 c-4 -8 -10 -15
-15 -15 -4 0 -6 7 -3 15 4 8 10 15 15 15 4 0 6 -7 3 -15z m221 -4 c-3 -6 -11
-11 -17 -11 -6 0 -6 6 2 15 14 17 26 13 15 -4z m-85 -96 c-7 -9 -15 -13 -18
-10 -3 2 1 11 8 20 7 9 15 13 18 10 3 -2 -1 -11 -8 -20z m-140 -353 c0 -5 -7
-9 -15 -9 -8 0 -15 4 -15 9 0 4 7 8 15 8 8 0 15 -4 15 -8z m-211 -33 c-7 -4
-17 -5 -22 -2 -5 3 -3 9 4 14 7 4 17 5 22 2 5 -3 3 -9 -4 -14z m-130 -50 c-16
-10 -23 -4 -14 10 3 6 11 8 17 5 6 -4 5 -9 -3 -15z m-94 -69 c-3 -5 -11 -10
-16 -10 -6 0 -7 5 -4 10 3 6 11 10 16 10 6 0 7 -4 4 -10z m350 -20 c-3 -5 -14
-10 -23 -10 -15 0 -15 2 -2 10 20 13 33 13 25 0z m-389 -47 c-11 -11 -19 6
-11 24 8 17 8 17 12 0 3 -10 2 -21 -1 -24z m324 28 c0 -12 -20 -25 -27 -18 -7
7 6 27 18 27 5 0 9 -4 9 -9z m80 3 c0 -20 -36 -104 -45 -104 -6 0 -22 -9 -35
-20 -14 -10 -42 -32 -62 -47 -20 -15 -58 -46 -83 -67 -36 -31 -48 -36 -58 -27
-9 10 -8 11 8 6 11 -3 5 2 -13 10 -21 10 -30 20 -26 27 6 9 9 9 12 -1 2 -7 14
9 27 36 29 62 83 111 165 150 93 43 110 49 110 37z m-150 -39 c-7 -9 -15 -13
-17 -11 -7 7 7 26 19 26 6 0 6 -6 -2 -15z m-50 -35 c0 -5 -4 -10 -10 -10 -5 0
-10 5 -10 10 0 6 5 10 10 10 6 0 10 -4 10 -10z m-46 -45 c-4 -8 -8 -15 -10
-15 -2 0 -4 7 -4 15 0 8 4 15 10 15 5 0 7 -7 4 -15z m-38 -62 c-11 -11 -17 4
-9 23 7 18 8 18 11 1 2 -10 1 -21 -2 -24z m116 -655 c-12 -44 -13 -196 -1
-244 5 -22 12 -50 15 -64 3 -14 19 -54 37 -90 17 -36 33 -69 35 -74 7 -13 -67
3 -108 24 -19 10 -48 31 -64 46 -33 33 -70 84 -61 84 3 0 -1 13 -9 28 -14 26
-16 133 -4 172 20 63 61 116 118 152 50 32 58 25 42 -34z"/>
<path d="M700 3609 c0 -5 5 -7 10 -4 6 3 10 8 10 11 0 2 -4 4 -10 4 -5 0 -10
-5 -10 -11z"/>
</g>
</svg>
