<?xml version="1.0" standalone="no"?>
<!DOCTYPE svg PUBLIC "-//W3C//DTD SVG 20010904//EN"
 "http://www.w3.org/TR/2001/REC-SVG-20010904/DTD/svg10.dtd">
<svg version="1.0" xmlns="http://www.w3.org/2000/svg"
 width="500.000000pt" height="500.000000pt" viewBox="0 0 500.000000 500.000000"
 preserveAspectRatio="xMidYMid meet">
<metadata>
Created by potrace 1.14, written by Peter Selinger 2001-2017
</metadata>
<g transform="translate(0.000000,500.000000) scale(0.100000,-0.100000)"
fill="#000000" stroke="none">
<path d="M1820 4243 c-39 -14 -156 -127 -826 -798 -533 -532 -789 -795 -804
-825 -39 -76 -31 -203 15 -249 15 -15 17 -15 29 2 16 21 30 22 22 1 -3 -9 -2
-12 5 -9 6 4 8 13 5 20 -2 7 6 25 20 40 13 14 24 23 24 18 0 -4 7 3 16 15 8
12 20 20 25 16 5 -3 9 -2 8 3 -3 19 2 33 12 33 5 0 7 -5 3 -12 -5 -7 -3 -8 5
-4 7 5 10 11 7 14 -9 8 35 52 51 52 7 0 13 -5 13 -10 0 -6 4 -9 9 -8 11 4 111
-97 111 -111 0 -5 5 -13 12 -17 7 -5 8 -2 3 7 -4 8 18 -12 49 -44 31 -31 56
-64 56 -72 0 -8 -45 -59 -100 -115 -55 -55 -100 -104 -100 -109 0 -4 20 -28
44 -52 25 -23 43 -46 40 -51 -3 -5 -1 -7 4 -6 14 4 162 -144 155 -156 -3 -5
-2 -6 4 -3 10 7 59 -43 55 -55 -1 -5 4 -8 11 -8 19 0 99 -85 90 -95 -5 -4 -3
-5 3 -2 11 6 81 -61 76 -75 -1 -4 4 -7 10 -6 7 2 12 -5 12 -14 -1 -10 2 -15 8
-12 12 8 189 -168 184 -182 -2 -6 3 -11 12 -10 9 0 16 -5 14 -12 -1 -6 2 -11
6 -10 13 4 161 -145 155 -156 -3 -5 -1 -6 6 -2 6 4 14 0 17 -8 3 -9 11 -16 16
-16 5 0 54 45 108 100 64 65 106 100 119 100 29 0 245 -215 248 -245 1 -16
-27 -50 -98 -121 -54 -54 -99 -102 -99 -105 0 -4 14 -12 30 -19 26 -11 29 -15
18 -29 -12 -14 -11 -14 4 -2 13 9 25 11 45 4 61 -21 166 6 222 55 13 12 28 19
34 15 6 -3 7 -1 3 5 -7 11 57 82 74 82 6 0 10 5 10 11 0 14 55 69 69 69 6 0
11 7 11 15 0 8 7 15 16 15 8 0 13 4 10 8 -6 10 29 42 45 42 5 0 7 5 4 10 -3 6
2 10 11 10 10 0 15 3 11 6 -9 9 44 54 56 47 6 -3 7 -1 3 5 -7 11 57 82 74 82
6 0 10 5 10 11 0 10 37 49 46 49 4 0 88 -60 115 -82 9 -7 33 -22 55 -34 21
-11 38 -26 36 -33 -1 -7 2 -10 8 -6 15 9 51 -5 44 -16 -3 -6 0 -9 7 -8 22 4
69 -12 64 -21 -3 -4 3 -7 13 -6 9 0 16 -4 15 -10 -1 -7 8 -9 22 -6 15 2 25 0
25 -7 0 -6 3 -10 8 -10 24 4 42 -2 36 -13 -4 -6 -3 -8 2 -5 17 10 106 -14 101
-27 -3 -7 1 -13 9 -13 7 0 10 5 7 10 -4 6 5 7 23 2 16 -4 62 -12 102 -19 40
-6 71 -13 69 -16 -3 -3 38 -5 91 -5 54 0 100 -4 104 -10 5 -6 8 -5 8 3 0 7 5
10 10 7 6 -4 8 -12 4 -18 -3 -7 1 -4 9 5 9 12 17 14 24 7 8 -8 13 -7 17 0 4 6
12 11 17 11 6 0 7 -6 3 -12 -6 -10 -5 -10 7 -2 8 7 55 17 104 24 119 17 118
16 135 23 8 3 29 8 46 10 17 3 41 10 53 16 14 8 21 8 21 1 0 -5 4 -10 10 -10
5 0 9 5 7 10 -1 6 21 19 48 29 28 10 78 31 112 48 45 22 65 27 73 19 8 -8 9
-6 4 8 -5 13 -4 17 4 12 7 -4 12 -2 12 5 0 7 3 9 7 6 12 -13 53 44 53 74 0 34
-31 69 -62 69 -12 0 -64 -20 -114 -45 -110 -54 -271 -108 -374 -125 -41 -6
-86 -13 -100 -16 -27 -5 -250 -5 -290 0 -57 6 -127 18 -165 28 -22 6 -47 11
-56 13 -40 8 -181 61 -244 93 -153 76 -266 159 -392 289 -199 206 -325 463
-371 763 -10 64 -8 361 2 385 5 11 8 27 7 35 -1 9 8 51 19 95 11 44 23 88 25
99 2 10 9 24 16 32 6 8 9 14 6 14 -3 0 3 21 13 48 10 26 23 46 29 45 6 -2 8 4
5 11 -8 20 14 58 28 50 7 -5 8 -2 3 5 -9 15 14 63 26 55 5 -3 6 3 2 12 -5 13
-3 15 7 9 9 -6 11 -4 5 5 -5 8 -2 17 6 24 8 6 22 27 32 47 10 19 35 54 56 77
21 23 35 45 32 48 -3 4 2 4 12 1 11 -4 16 -3 12 4 -4 5 20 37 53 69 36 35 63
54 66 47 2 -7 5 -6 5 4 1 18 59 66 73 61 5 -1 7 2 3 8 -3 5 2 13 12 17 10 4
27 15 37 25 18 17 42 15 31 -2 -3 -5 0 -12 7 -16 7 -4 10 -4 6 1 -4 4 -2 15 5
23 10 13 9 14 -2 8 -9 -6 -12 -5 -9 5 3 8 12 13 21 13 9 -1 15 2 12 6 -2 4 8
13 23 21 15 8 30 18 33 22 4 5 18 10 32 10 14 1 23 5 21 8 -5 9 46 30 57 24 5
-4 9 -1 9 5 0 7 7 9 16 6 8 -3 13 -2 10 3 -5 7 72 39 109 45 6 1 15 4 20 8 6
3 28 8 50 9 22 2 43 7 46 11 3 5 31 9 62 10 31 2 57 5 57 9 0 3 35 6 78 7 117
4 136 10 150 52 12 34 -3 69 -38 87 -24 12 -99 11 -215 -3 -161 -18 -361 -80
-502 -154 -89 -46 -229 -135 -239 -151 -2 -5 -42 30 -88 77 l-83 85 -107 -105
c-59 -58 -112 -106 -118 -106 -15 0 -227 209 -243 241 -13 24 -12 28 9 48 12
12 26 18 30 14 4 -5 6 -1 4 7 -2 8 2 14 9 15 6 0 15 4 20 9 5 5 3 6 -4 2 -7
-4 -13 -2 -13 3 0 11 15 15 35 11 6 -1 7 2 2 6 -12 12 33 53 52 47 11 -3 12
-2 4 4 -9 6 -4 17 18 40 l29 32 -24 16 c-57 38 -149 45 -226 18z m3 -535 c62
-62 111 -116 109 -120 -1 -5 3 -8 8 -8 6 0 10 -7 10 -16 0 -9 -5 -12 -12 -8
-7 4 -8 3 -4 -4 8 -13 -217 -242 -237 -242 -18 0 -239 225 -230 234 4 4 1 6
-7 4 -20 -4 -14 33 8 50 9 6 13 12 9 12 -4 0 9 15 29 33 21 17 41 31 46 30 4
-2 7 0 7 5 -3 18 2 32 12 32 5 0 7 -6 3 -12 -4 -8 -3 -10 2 -5 5 5 9 12 9 16
0 14 99 111 113 111 8 0 64 -51 125 -112z m-411 -428 c65 -66 118 -127 118
-135 0 -18 -236 -255 -254 -255 -7 0 -68 56 -135 125 -109 111 -121 126 -111
145 6 11 15 18 20 15 5 -3 12 0 16 6 4 8 3 9 -4 5 -7 -4 -12 -2 -12 3 0 10 14
15 32 12 5 0 7 2 6 7 -3 14 14 42 23 36 5 -3 9 0 9 6 0 6 4 9 9 5 5 -3 13 0
17 6 4 8 3 9 -4 5 -7 -4 -12 -2 -12 3 0 11 15 15 35 11 6 -1 7 2 2 6 -12 12
33 53 52 47 12 -4 13 -3 3 5 -10 7 -6 15 18 36 17 14 37 26 43 26 6 0 64 -54
129 -120z m-426 -415 c70 -70 112 -119 108 -127 -4 -7 -3 -8 4 -4 7 4 12 1 12
-8 0 -19 -220 -241 -247 -250 -15 -5 -45 20 -142 119 -79 81 -120 129 -115
137 17 30 37 46 50 41 8 -3 14 0 14 7 0 6 -4 8 -10 5 -5 -3 -10 -2 -10 3 0 15
28 22 34 9 3 -7 3 -2 0 10 -3 16 1 23 16 28 11 4 17 11 14 17 -5 7 -1 9 9 5 9
-3 19 -1 23 5 4 7 3 8 -4 4 -7 -4 -12 -2 -12 3 0 10 14 15 33 12 4 0 6 2 5 7
-3 14 14 42 23 36 5 -3 9 0 9 6 0 6 5 8 12 4 7 -5 8 -3 4 5 -9 13 20 40 42 41
8 0 65 -52 128 -115z m1094 -1099 c0 4 52 -45 115 -109 63 -63 115 -123 115
-133 0 -21 -228 -254 -249 -254 -22 0 -251 231 -251 252 0 23 38 61 52 52 6
-4 8 -3 4 4 -3 6 35 53 86 105 75 77 96 93 111 85 9 -5 17 -6 17 -2z"/>
<path d="M1776 3727 c3 -10 9 -15 12 -12 3 3 0 11 -7 18 -10 9 -11 8 -5 -6z"/>
<path d="M1316 3327 c3 -10 9 -15 12 -12 3 3 0 11 -7 18 -10 9 -11 8 -5 -6z"/>
<path d="M2076 1742 c-3 -5 1 -9 9 -9 8 0 12 4 9 9 -3 4 -7 8 -9 8 -2 0 -6 -4
-9 -8z"/>
<path d="M1909 1603 c-13 -16 -12 -17 4 -4 9 7 17 15 17 17 0 8 -8 3 -21 -13z"/>
<path d="M3373 3925 c0 -8 4 -12 9 -9 5 3 6 10 3 15 -9 13 -12 11 -12 -6z"/>
<path d="M3010 3859 c0 -5 5 -7 10 -4 6 3 10 8 10 11 0 2 -4 4 -10 4 -5 0 -10
-5 -10 -11z"/>
<path d="M3065 3860 c-3 -6 1 -7 9 -4 18 7 21 14 7 14 -6 0 -13 -4 -16 -10z"/>
<path d="M3290 3793 c-395 -57 -733 -287 -924 -628 -54 -97 -118 -275 -132
-365 -2 -14 -8 -51 -12 -83 -10 -67 -9 -259 2 -327 11 -66 14 -85 16 -85 2 0
5 -13 13 -55 3 -14 10 -38 17 -55 6 -16 11 -31 11 -32 -1 -2 11 -29 25 -60 14
-32 27 -68 27 -80 1 -12 4 -19 6 -17 9 8 32 -37 25 -49 -4 -6 -4 -9 0 -5 5 4
31 -27 58 -68 28 -41 69 -96 92 -121 22 -25 40 -50 38 -55 -1 -5 1 -7 6 -4 5
3 25 -13 45 -34 20 -22 41 -40 46 -40 5 0 11 -4 13 -8 2 -4 20 -21 40 -36 21
-16 36 -32 33 -36 -3 -5 0 -12 6 -16 8 -4 9 -3 5 4 -4 7 -5 12 -1 12 8 0 59
-33 66 -43 3 -5 10 -9 15 -9 5 1 8 -7 6 -16 -2 -15 -1 -15 8 -2 8 12 12 13 19
2 4 -8 11 -13 15 -12 11 2 65 -24 61 -30 -2 -3 6 -6 18 -7 12 0 47 -11 77 -22
30 -12 63 -24 73 -27 70 -17 106 -25 130 -27 9 -1 17 -4 17 -7 0 -3 21 -6 48
-6 167 -5 259 -5 276 2 15 6 17 4 11 -7 -7 -11 -6 -12 6 -2 13 11 29 15 109
28 19 3 42 9 50 12 8 3 26 8 39 10 13 2 51 15 85 29 33 13 66 22 74 19 7 -2
10 0 7 5 -6 9 8 14 28 11 4 0 7 3 7 8 0 11 110 66 123 63 5 -1 6 2 3 7 -3 5
15 23 42 40 26 16 59 42 75 56 15 14 27 24 27 21 0 -3 19 15 42 39 23 24 46
41 50 39 5 -3 8 -2 7 3 -4 21 2 24 19 12 15 -13 16 -12 3 3 -12 16 -9 23 20
56 49 56 62 74 77 102 19 38 64 114 71 120 3 3 8 14 9 25 2 11 8 23 14 26 5 3
9 9 9 13 -3 19 0 27 8 22 5 -4 8 2 6 11 -1 10 2 24 8 31 5 6 7 12 3 12 -4 0 0
14 9 30 9 17 13 30 11 30 -3 0 1 17 8 38 8 21 17 61 20 88 4 27 9 64 12 82 15
92 6 290 -17 392 -6 25 -12 52 -14 60 -2 8 -13 44 -25 80 -127 377 -421 665
-801 785 -132 41 -216 53 -374 52 -66 0 -131 -2 -145 -4z m238 -169 c23 -9 40
-19 37 -24 -3 -4 3 -7 13 -6 9 0 16 -5 14 -12 -1 -8 2 -11 7 -8 12 8 43 -23
35 -35 -3 -5 0 -8 6 -7 15 4 45 -47 55 -90 39 -178 -96 -336 -274 -319 -146
13 -249 137 -236 282 3 27 9 51 14 53 6 2 7 10 4 18 -3 8 0 14 7 14 6 0 9 4 6
8 -8 13 55 84 70 78 8 -3 11 0 8 9 -5 12 30 32 49 27 4 -1 7 2 7 7 0 22 121
25 178 5z m-792 -395 c-5 7 7 9 36 5 63 -9 91 -22 84 -39 -3 -8 0 -17 6 -21 6
-4 8 -3 4 4 -3 6 -2 13 3 16 15 10 85 -59 76 -74 -5 -8 -4 -11 3 -6 19 11 45
-54 50 -124 19 -269 -331 -379 -477 -151 -26 40 -33 62 -36 120 -3 41 -1 71 5
71 5 0 7 7 4 15 -4 8 -1 15 6 15 6 0 9 3 7 8 -3 4 -1 18 4 31 7 16 14 21 27
16 13 -5 14 -3 5 6 -9 9 -6 17 13 36 13 13 28 22 33 18 5 -3 13 0 17 6 5 8 3
10 -7 4 -11 -6 -10 -4 1 8 8 9 24 18 35 19 11 2 26 7 33 11 6 5 17 5 22 2 6
-3 10 -1 10 5 0 8 6 7 21 -1 14 -7 19 -7 15 0z m1410 -1 c-3 6 5 9 19 8 15 0
25 -7 25 -16 0 -12 2 -13 9 -1 6 8 14 10 22 5 8 -5 19 -9 26 -10 16 -3 93 -57
93 -66 0 -5 9 -17 21 -29 12 -12 19 -29 16 -40 -3 -10 -1 -17 4 -13 5 3 9 2
10 -3 0 -4 3 -17 6 -28 11 -44 5 -123 -14 -166 -91 -203 -384 -204 -475 -2
-34 76 -25 196 17 243 8 9 15 22 15 29 0 8 6 11 16 7 8 -3 13 -2 10 3 -18 28
131 99 167 79 13 -6 17 -6 13 0z m-1338 -811 c12 -1 22 -7 22 -14 0 -6 4 -15
10 -18 6 -4 7 1 3 10 -5 15 -3 15 16 4 13 -9 19 -20 16 -29 -5 -12 -3 -12 6
-3 9 9 19 5 45 -20 24 -22 30 -33 21 -39 -9 -6 -8 -8 3 -8 16 0 38 -41 46 -86
3 -15 7 -31 10 -35 2 -4 0 -10 -4 -13 -5 -3 -7 -16 -5 -30 6 -31 -25 -102 -65
-147 -126 -144 -374 -93 -437 90 -18 53 -19 94 -4 123 8 15 8 19 0 14 -12 -8
-1 27 21 67 7 12 12 24 13 27 0 3 13 19 29 37 28 31 88 63 136 70 13 3 27 6
29 9 3 2 18 2 35 -1 17 -4 41 -7 54 -8z m1330 -2 c-4 6 3 12 15 12 17 2 19 0
7 -7 -8 -5 -10 -10 -4 -10 5 0 15 5 22 12 9 9 12 9 12 -1 0 -7 5 -9 12 -5 8 5
9 1 5 -12 -7 -18 -7 -18 8 0 14 19 21 11 16 -17 -1 -5 3 -6 9 -2 6 3 8 11 5
16 -3 5 1 6 9 3 9 -3 16 -10 16 -15 0 -5 3 -8 8 -7 10 3 52 -25 52 -35 0 -5 8
-16 19 -25 29 -27 54 -101 40 -119 -10 -11 -10 -14 2 -11 10 2 14 -7 13 -32
-7 -148 -112 -251 -258 -253 -181 -3 -305 173 -243 343 21 57 40 84 51 72 4
-3 4 2 0 13 -6 15 -4 17 10 12 9 -4 15 -3 11 2 -7 13 47 49 64 43 8 -3 11 0 7
7 -7 10 4 14 47 14 9 0 17 4 17 10 0 5 8 3 17 -4 9 -8 14 -9 11 -4z m-605
-413 c7 -6 17 -11 22 -12 6 -2 29 -16 53 -32 28 -19 41 -35 38 -44 -3 -8 -2
-12 4 -9 11 7 32 -29 23 -39 -3 -3 -1 -6 4 -6 6 0 14 -19 18 -42 4 -24 9 -51
11 -60 1 -10 -1 -18 -5 -18 -5 0 -7 -10 -4 -22 6 -36 -47 -128 -95 -165 -54
-41 -111 -57 -183 -50 -96 8 -179 68 -217 156 -18 42 -21 173 -4 179 6 2 8 10
5 18 -3 8 0 14 7 14 6 0 9 4 6 8 -3 5 12 28 33 52 36 41 40 43 57 30 17 -14
18 -13 6 2 -14 18 0 34 20 22 7 -4 8 -3 4 4 -4 7 4 14 21 18 15 3 33 7 38 8
23 7 127 -3 138 -12z"/>
<path d="M3433 3615 c0 -8 4 -12 9 -9 5 3 6 10 3 15 -9 13 -12 11 -12 -6z"/>
<path d="M3513 3605 c0 -8 4 -12 9 -9 5 3 6 10 3 15 -9 13 -12 11 -12 -6z"/>
<path d="M3253 3543 c4 -3 -1 -16 -10 -27 -18 -21 -18 -21 4 -2 20 16 23 36 6
36 -4 0 -3 -3 0 -7z"/>
<path d="M2575 3140 c3 -5 8 -10 11 -10 2 0 4 5 4 10 0 6 -5 10 -11 10 -5 0
-7 -4 -4 -10z"/>
<path d="M4055 3200 c-3 -5 -1 -10 4 -10 6 0 11 5 11 10 0 6 -2 10 -4 10 -3 0
-8 -4 -11 -10z"/>
<path d="M4255 3180 c3 -5 8 -10 11 -10 2 0 4 5 4 10 0 6 -5 10 -11 10 -5 0
-7 -4 -4 -10z"/>
<path d="M4109 2383 c-13 -16 -12 -17 4 -4 16 13 21 21 13 21 -2 0 -10 -8 -17
-17z"/>
<path d="M3396 1978 c3 -4 11 -5 19 -1 21 7 19 12 -4 10 -11 0 -18 -5 -15 -9z"/>
<path d="M2761 3756 c-9 -11 -9 -16 1 -22 7 -4 10 -4 6 1 -4 4 -3 14 3 22 6 7
9 13 6 13 -2 0 -10 -6 -16 -14z"/>
<path d="M2476 3522 c-3 -5 1 -9 9 -9 8 0 12 4 9 9 -3 4 -7 8 -9 8 -2 0 -6 -4
-9 -8z"/>
<path d="M696 1847 c3 -10 9 -15 12 -12 3 3 0 11 -7 18 -10 9 -11 8 -5 -6z"/>
<path d="M4230 1599 c0 -5 5 -7 10 -4 6 3 10 8 10 11 0 2 -4 4 -10 4 -5 0 -10
-5 -10 -11z"/>
<path d="M4153 1545 c0 -8 4 -12 9 -9 5 3 6 10 3 15 -9 13 -12 11 -12 -6z"/>
<path d="M4010 1459 c0 -5 5 -7 10 -4 6 3 10 8 10 11 0 2 -4 4 -10 4 -5 0 -10
-5 -10 -11z"/>
<path d="M1126 1398 c3 -5 10 -6 15 -3 13 9 11 12 -6 12 -8 0 -12 -4 -9 -9z"/>
<path d="M3042 1384 c10 -10 20 -16 22 -13 3 3 -5 11 -17 18 -21 13 -21 12 -5
-5z"/>
<path d="M3855 1391 c-3 -5 -2 -12 3 -15 5 -3 9 1 9 9 0 17 -3 19 -12 6z"/>
<path d="M3136 1347 c3 -10 9 -15 12 -12 3 3 0 11 -7 18 -10 9 -11 8 -5 -6z"/>
<path d="M3210 1345 c0 -5 5 -17 10 -25 5 -8 10 -10 10 -5 0 6 -5 17 -10 25
-5 8 -10 11 -10 5z"/>
<path d="M3775 1341 c-3 -5 -2 -12 3 -15 5 -3 9 1 9 9 0 17 -3 19 -12 6z"/>
<path d="M2475 1329 c-4 -6 -5 -12 -2 -15 2 -3 7 2 10 11 7 17 1 20 -8 4z"/>
<path d="M3417 1315 c-4 -8 -3 -16 1 -19 4 -3 9 4 9 15 2 23 -3 25 -10 4z"/>
<path d="M2535 1300 c-3 -5 -1 -10 4 -10 6 0 11 5 11 10 0 6 -2 10 -4 10 -3 0
-8 -4 -11 -10z"/>
<path d="M3370 1306 c0 -2 7 -7 16 -10 8 -3 12 -2 9 4 -6 10 -25 14 -25 6z"/>
<path d="M3505 1300 c-3 -6 1 -7 9 -4 18 7 21 14 7 14 -6 0 -13 -4 -16 -10z"/>
<path d="M1635 1280 c3 -5 8 -10 11 -10 2 0 4 5 4 10 0 6 -5 10 -11 10 -5 0
-7 -4 -4 -10z"/>
<path d="M2670 1219 c0 -5 5 -7 10 -4 6 3 10 8 10 11 0 2 -4 4 -10 4 -5 0 -10
-5 -10 -11z"/>
<path d="M1816 1167 c3 -10 9 -15 12 -12 3 3 0 11 -7 18 -10 9 -11 8 -5 -6z"/>
<path d="M4055 1161 c-3 -5 -2 -12 3 -15 5 -3 9 1 9 9 0 17 -3 19 -12 6z"/>
<path d="M2810 1139 c0 -5 5 -7 10 -4 6 3 10 8 10 11 0 2 -4 4 -10 4 -5 0 -10
-5 -10 -11z"/>
<path d="M1856 1118 c3 -5 10 -6 15 -3 13 9 11 12 -6 12 -8 0 -12 -4 -9 -9z"/>
<path d="M2276 1118 c3 -5 10 -6 15 -3 13 9 11 12 -6 12 -8 0 -12 -4 -9 -9z"/>
<path d="M2855 1120 c-3 -5 -1 -10 4 -10 6 0 11 5 11 10 0 6 -2 10 -4 10 -3 0
-8 -4 -11 -10z"/>
<path d="M3016 1087 c3 -10 9 -15 12 -12 3 3 0 11 -7 18 -10 9 -11 8 -5 -6z"/>
<path d="M3155 1049 c-4 -6 -5 -12 -2 -15 2 -3 7 2 10 11 7 17 1 20 -8 4z"/>
<path d="M3676 1042 c-3 -5 1 -9 9 -9 8 0 12 4 9 9 -3 4 -7 8 -9 8 -2 0 -6 -4
-9 -8z"/>
<path d="M3716 1038 c3 -5 10 -6 15 -3 13 9 11 12 -6 12 -8 0 -12 -4 -9 -9z"/>
<path d="M3293 1025 c0 -8 4 -12 9 -9 5 3 6 10 3 15 -9 13 -12 11 -12 -6z"/>
<path d="M3335 1031 c-3 -5 -2 -12 3 -15 5 -3 9 1 9 9 0 17 -3 19 -12 6z"/>
<path d="M3630 1026 c0 -2 7 -7 16 -10 8 -3 12 -2 9 4 -6 10 -25 14 -25 6z"/>
<path d="M2027 879 c7 -7 15 -10 18 -7 3 3 -2 9 -12 12 -14 6 -15 5 -6 -5z"/>
<path d="M1826 798 c3 -5 10 -6 15 -3 13 9 11 12 -6 12 -8 0 -12 -4 -9 -9z"/>
</g>
</svg>
